<?xml version="1.0" encoding="utf-8"?>
<!-- Generator: Adobe Illustrator 22.0.1, SVG Export Plug-In . SVG Version: 6.00 Build 0)  -->
<svg version="1.1" id="Layer_1" opacity="0.3" xmlns="http://www.w3.org/2000/svg" xmlns:xlink="http://www.w3.org/1999/xlink"
	 x="0px" y="0px" viewBox="0 0 1482 920" style="enable-background:new 0 0 1482 920;" xml:space="preserve">
<style type="text/css">
	.st0{fill:#DDDDDD;}
	.st1{fill:none;stroke:#DDDDDD;stroke-width:6;stroke-miterlimit:10;}
</style>
<rect x="74.4" y="-66.6" transform="matrix(0.7071 0.7071 -0.7071 0.7071 9.3953 -146.3958)" class="st0" width="214" height="9.5"/>
<rect x="273.7" y="132.6" transform="matrix(0.7071 0.7071 -0.7071 0.7071 208.6581 -228.9331)" class="st0" width="214" height="9.5"/>
<rect x="482.3" y="293.6" transform="matrix(0.7071 0.7071 -0.7071 0.7071 369.613 -295.6028)" class="st0" width="118.6" height="9.5"/>
<rect x="200.7" y="668.9" transform="matrix(0.7071 0.7071 -0.7071 0.7071 552.1242 14.4383)" class="st0" width="115.8" height="9.5"/>
<rect x="326.6" y="799.7" transform="matrix(0.7071 0.7071 -0.7071 0.7071 682.8566 -39.7129)" class="st0" width="125.5" height="9.5"/>
<rect x="447.6" y="964.9" transform="matrix(0.7071 0.7071 -0.7071 0.7071 848.0729 -108.1477)" class="st0" width="214" height="9.5"/>
<path class="st0" d="M458.5,363L-38.9-134.4c-13.1-13.1-13.1-34.6,0-47.7l0,0c13.1-13.1,34.6-13.1,47.7,0l497.4,497.4
	c13.1,13.1,13.1,34.6,0,47.7l0,0C493.1,376.1,471.6,376.1,458.5,363z"/>
<path class="st0" d="M940.6,1296.2L386.9,742.5c-13.1-13.1-13.1-34.6,0-47.7l4.9-4.9c13.1-13.1,34.6-13.1,47.7,0l553.7,553.7
	c13.1,13.1,13.1,34.6,0,47.7l-4.9,4.9C975.2,1309.4,953.8,1309.4,940.6,1296.2z"/>
<circle class="st1" cx="282.6" cy="719.9" r="46.2"/>
<circle class="st1" cx="130.4" cy="677.4" r="26.5"/>
<circle class="st1" cx="367.2" cy="124.8" r="46.2"/>
<path class="st0" d="M240.2,338.3L-78,20.1c-8.8-8.8-8.8-23.1,0-31.8l0,0c8.8-8.8,23.1-8.8,31.8,0L272,306.5
	c8.8,8.8,8.8,23.1,0,31.8l0,0C263.2,347,248.9,347,240.2,338.3z"/>
<rect x="-46.8" y="213.7" transform="matrix(0.7071 0.7071 -0.7071 0.7071 172.1428 21.4081)" class="st0" width="214" height="9.5"/>
<circle class="st1" cx="104.1" cy="124.8" r="34.4"/>
<circle class="st1" cx="175.4" cy="730.3" r="19.2"/>
<path class="st0" d="M1186.9,370L931.9,114.9c-6.3-6.3-6.3-16.5,0-22.8v0c6.3-6.3,16.5-6.3,22.8,0l255.1,255.1
	c6.3,6.3,6.3,16.5,0,22.8v0C1203.4,376.2,1193.2,376.2,1186.9,370z"/>
<circle class="st1" cx="734.1" cy="879" r="12.2"/>
<circle class="st1" cx="664.7" cy="868.6" r="10.5"/>
<rect x="678.1" y="96.5" transform="matrix(0.7071 0.7071 -0.7071 0.7071 324.9474 -581.9778)" class="st0" width="373.7" height="9.5"/>
<circle class="st1" cx="811.5" cy="47.8" r="26.5"/>
<rect x="1160.8" y="299.3" transform="matrix(0.7071 0.7071 -0.7071 0.7071 572.3962 -773.6902)" class="st0" width="118.6" height="9.5"/>
<path class="st0" d="M1672.7,946.1l-407.9-407.9c-13.1-13.1-34.6-13.1-47.7,0v0c-13.1,13.1-13.1,34.6,0,47.7L1625,993.9
	c13.1,13.1,34.6,13.1,47.7,0l0,0C1685.9,980.8,1685.9,959.3,1672.7,946.1z"/>
<circle class="st1" cx="1157.7" cy="650.8" r="46.2"/>
<circle class="st1" cx="1111.5" cy="525.7" r="26.6"/>
<circle class="st1" cx="181.4" cy="339.7" r="23.1"/>
<circle class="st1" cx="33.8" cy="244.9" r="12.2"/>
<path class="st0" d="M1561.1,1077.9L1306,822.9c-6.3-6.3-6.3-16.5,0-22.8l0,0c6.3-6.3,16.5-6.3,22.8,0l255.1,255.1
	c6.3,6.3,6.3,16.5,0,22.8l0,0C1577.6,1084.2,1567.3,1084.2,1561.1,1077.9z"/>
<rect x="1017" y="807.5" transform="matrix(0.7071 0.7071 -0.7071 0.7071 926.9935 -613.3378)" class="st0" width="373.7" height="9.5"/>
<circle class="st1" cx="1168.1" cy="847.7" r="10.5"/>
<circle class="st1" cx="1203.9" cy="740.7" r="10.5"/>
<circle class="st1" cx="1263.5" cy="339.7" r="31.9"/>
<path class="st0" d="M1544.9,447l-318.2-318.2c-8.8-8.8-8.8-23.1,0-31.8l0,0c8.8-8.8,23.1-8.8,31.8,0l318.2,318.2
	c8.8,8.8,8.8,23.1,0,31.8l0,0C1567.9,455.8,1553.6,455.8,1544.9,447z"/>
<circle class="st1" cx="1330.8" cy="115.1" r="67.3"/>
<circle class="st1" cx="1129.3" cy="92.4" r="26.5"/>
<circle class="st1" cx="1051.6" cy="134.3" r="19.2"/>
<rect x="1360.6" y="252.4" transform="matrix(0.7071 0.7071 -0.7071 0.7071 611.7076 -962.4462)" class="st0" width="214" height="9.5"/>
</svg>
