<?xml version="1.0" encoding="utf-8"?>
<!-- Generator: Adobe Illustrator 22.0.1, SVG Export Plug-In . SVG Version: 6.00 Build 0)  -->
<svg version="1.1" id="Layer_1" xmlns="http://www.w3.org/2000/svg" xmlns:xlink="http://www.w3.org/1999/xlink" x="0px" y="0px"
	 viewBox="0 0 87 45" style="enable-background:new 0 0 87 45;" xml:space="preserve">
<style type="text/css">
	.st0{fill:#00205B;}
	.st1{fill:none;stroke:#DDDDDD;stroke-width:2;stroke-miterlimit:10;}
</style>
<g>
	<path class="st0" d="M25.4,7.2h3.1l-4,15.1h-4.3l-3-11.4l-3.1,11.4H10L6,7.2h3.4l3,12l3.2-12h3.7l3.1,12.1L25.4,7.2z"/>
	<path class="st0" d="M30.2,9c-0.3-0.3-0.5-0.7-0.5-1.3c0-0.5,0.2-1,0.5-1.3c0.3-0.3,0.8-0.4,1.5-0.4c0.7,0,1.2,0.1,1.5,0.4
		c0.3,0.3,0.5,0.7,0.5,1.3c0,0.5-0.2,1-0.5,1.3c-0.3,0.3-0.8,0.4-1.5,0.4S30.6,9.3,30.2,9z M30.1,22.2V11.1h3.3v11.1H30.1z"/>
	<path class="st0" d="M35.8,22.2V5.8H39v16.5H35.8z"/>
	<path class="st0" d="M41.5,22.2V5.8h3.3v16.5H41.5z"/>
	<path class="st0" d="M47.2,9c-0.3-0.3-0.5-0.7-0.5-1.3c0-0.5,0.2-1,0.5-1.3c0.3-0.3,0.8-0.4,1.5-0.4c0.7,0,1.2,0.1,1.5,0.4
		c0.3,0.3,0.5,0.7,0.5,1.3c0,0.5-0.2,1-0.5,1.3c-0.3,0.3-0.8,0.4-1.5,0.4S47.6,9.3,47.2,9z M47.1,22.2V11.1h3.3v11.1H47.1z"/>
	<path class="st0" d="M59.7,11.4c0.7,0.3,1.3,0.8,1.7,1.5c0.4,0.7,0.5,1.6,0.5,2.8v6.6h-2.7L59,21.1h-0.2c-0.3,0.4-0.7,0.8-1.3,1
		c-0.5,0.2-1.1,0.3-1.7,0.3c-0.7,0-1.4-0.1-1.9-0.4c-0.5-0.3-1-0.6-1.2-1.1c-0.3-0.5-0.4-1.1-0.4-1.7c0-1.1,0.4-1.9,1.1-2.5
		c0.7-0.6,1.9-0.9,3.5-1l1.8-0.2v-0.1c0-0.5-0.1-0.9-0.2-1.2c-0.2-0.3-0.4-0.5-0.8-0.6c-0.4-0.1-0.9-0.2-1.5-0.2c-0.5,0-1,0-1.5,0.1
		c-0.5,0.1-1.1,0.2-1.5,0.3v-2.4c0.5-0.1,1.1-0.3,1.8-0.3c0.6-0.1,1.3-0.1,1.8-0.1C57.9,10.9,58.9,11.1,59.7,11.4z M57.9,20
		c0.3-0.1,0.6-0.3,0.8-0.5v-2.1l-1.5,0.1c-0.6,0-1.1,0.2-1.3,0.4c-0.3,0.2-0.4,0.6-0.4,1c0,0.4,0.1,0.7,0.4,0.9
		c0.3,0.2,0.6,0.3,1.1,0.3C57.2,20.2,57.6,20.1,57.9,20z"/>
	<path class="st0" d="M79.3,12c0.7,0.7,1,1.8,1,3.3v6.9H77v-6.8c0-0.6-0.1-1.1-0.4-1.4c-0.3-0.3-0.6-0.4-1.1-0.4
		c-0.3,0-0.6,0.1-0.9,0.2c-0.3,0.1-0.6,0.3-0.8,0.6c0,0.2,0,0.5,0,0.7v7h-3.2v-6.8c0-0.6-0.1-1.1-0.4-1.4s-0.6-0.4-1-0.4
		c-0.3,0-0.7,0.1-1,0.2c-0.3,0.2-0.6,0.4-0.8,0.7v7.6h-3.3V11.1h2.7l0.2,1.1h0.2c0.8-0.9,1.8-1.3,3.1-1.3c0.6,0,1.2,0.1,1.7,0.4
		c0.5,0.2,0.9,0.6,1.2,1.1c0.5-0.5,1-0.9,1.6-1.1c0.6-0.2,1.2-0.4,1.8-0.4C77.7,10.9,78.6,11.3,79.3,12z"/>
	<path class="st0" d="M60.2,42.6V27.5h3.3v12.3h6.9v2.8H60.2z"/>
	<path class="st0" d="M78.8,31.7c0.7,0.3,1.3,0.8,1.7,1.5c0.4,0.7,0.5,1.6,0.5,2.8v6.6h-2.7l-0.2-1.1H78c-0.3,0.4-0.7,0.8-1.3,1
		c-0.5,0.2-1.1,0.3-1.7,0.3c-0.7,0-1.4-0.1-1.9-0.4c-0.5-0.3-1-0.6-1.2-1.1c-0.3-0.5-0.4-1.1-0.4-1.7c0-1.1,0.4-1.9,1.1-2.5
		c0.7-0.6,1.9-0.9,3.5-1l1.8-0.2v-0.1c0-0.5-0.1-0.9-0.3-1.2c-0.2-0.3-0.4-0.5-0.8-0.6c-0.4-0.1-0.9-0.2-1.5-0.2c-0.5,0-1,0-1.5,0.1
		c-0.5,0.1-1.1,0.2-1.5,0.3v-2.4c0.5-0.1,1.1-0.3,1.8-0.3c0.6-0.1,1.3-0.1,1.8-0.1C77.1,31.3,78.1,31.4,78.8,31.7z M77,40.4
		c0.3-0.1,0.6-0.3,0.8-0.5v-2.1l-1.5,0.1c-0.6,0-1.1,0.2-1.3,0.4c-0.3,0.2-0.4,0.6-0.4,1c0,0.4,0.1,0.7,0.4,0.9
		c0.3,0.2,0.6,0.3,1.1,0.3C76.4,40.5,76.7,40.5,77,40.4z"/>
</g>
<line class="st1" x1="8.9" y1="28.5" x2="56.7" y2="28.5"/>
</svg>
