<?xml version="1.0" encoding="utf-8"?>
<!-- Generator: Adobe Illustrator 22.0.1, SVG Export Plug-In . SVG Version: 6.00 Build 0)  -->
<svg version="1.1" id="Layer_1" xmlns="http://www.w3.org/2000/svg" xmlns:xlink="http://www.w3.org/1999/xlink" x="0px" y="0px"
	 viewBox="0 0 250 150" style="enable-background:new 0 0 250 150;" xml:space="preserve">
<style type="text/css">
	.st0{fill:#421B89;}
	.st1{fill:#BBBBBB;}
</style>
<polygon class="st0" points="11.4,17.9 48.7,132.1 62.7,132.1 25.4,17.9 "/>
<polygon class="st0" points="155.9,17.9 118.6,132.1 104.6,132.1 141.9,17.9 "/>
<polygon class="st0" points="48.7,132.1 62.7,132.1 90.7,43.3 76.7,43.3 "/>
<polygon class="st0" points="118.6,132.1 104.6,132.1 76.7,43.3 90.7,43.3 "/>
<polygon class="st1" points="178,17.9 140.8,132.1 126.8,132.1 164.1,17.9 "/>
<polygon class="st1" points="126.8,132.1 234,132.1 230.9,121.1 131.4,120.4 "/>
<polygon class="st0" points="197.8,18.2 166.5,114.1 154.7,114.1 186.1,18.2 "/>
<polygon class="st0" points="186.2,18.2 217.5,114.1 229.3,114.1 198,18.2 "/>
</svg>
