<?xml version="1.0" encoding="utf-8"?>
<!-- Generator: Adobe Illustrator 22.0.1, SVG Export Plug-In . SVG Version: 6.00 Build 0)  -->
<svg version="1.1" id="Layer_1" xmlns="http://www.w3.org/2000/svg" xmlns:xlink="http://www.w3.org/1999/xlink" x="0px" y="0px"
	 viewBox="0 0 250 305" style="enable-background:new 0 0 250 305;" xml:space="preserve">
<style type="text/css">
	.st0{fill:#E9E9E9;}
	.st1{fill:none;stroke:#E9E9E9;stroke-width:3;stroke-miterlimit:10;}
	.st2{fill:none;stroke:#E9E9E9;stroke-width:2;stroke-miterlimit:10;}
	.st3{fill:none;stroke:#E9E9E9;stroke-width:1.5;stroke-miterlimit:10;}
</style>
<path class="st0" d="M166,93.2L39.3,219.9c-5.1,5.1-13.3,5.1-18.4,0l-1.4-1.4c-5.1-5.1-5.1-13.3,0-18.4L146.3,73.4
	c5.1-5.1,13.3-5.1,18.4,0l1.4,1.4C171.1,79.9,171.1,88.1,166,93.2z"/>
<line class="st1" x1="65.4" y1="122" x2="164.8" y2="22.6"/>
<line class="st1" x1="25.7" y1="282" x2="110.5" y2="197.1"/>
<circle class="st1" cx="106.8" cy="191.2" r="17.2"/>
<path class="st0" d="M233.4,134.4l-97.1,97.1c-2.3,2.3-6.2,2.3-8.5,0l-0.6-0.6c-2.3-2.3-2.3-6.2,0-8.5l97.1-97.1
	c2.3-2.3,6.2-2.3,8.5,0l0.6,0.6C235.8,128.2,235.8,132,233.4,134.4z"/>
<line class="st2" x1="118" y1="160.6" x2="194.8" y2="83.8"/>
<circle class="st3" cx="181.4" cy="79" r="5.4"/>
<circle class="st2" cx="99.2" cy="249.2" r="9.7"/>
<circle class="st3" cx="77.2" cy="214.3" r="5.4"/>
</svg>
