<?xml version="1.0" encoding="utf-8"?>
<!-- Generator: Adobe Illustrator 22.0.1, SVG Export Plug-In . SVG Version: 6.00 Build 0)  -->
<svg version="1.1" id="Layer_1" xmlns="http://www.w3.org/2000/svg" xmlns:xlink="http://www.w3.org/1999/xlink" x="0px" y="0px"
	 viewBox="0 0 300 200" style="enable-background:new 0 0 300 200;" xml:space="preserve">
<style type="text/css">
	.st0{fill:#CCCCCC;}
	.st1{fill:none;stroke:#CCCCCC;stroke-width:3;stroke-miterlimit:10;}
	.st2{fill:none;stroke:#CCCCCC;stroke-width:1.5;stroke-miterlimit:10;}
	.st3{fill:none;stroke:#CCCCCC;stroke-width:2;stroke-miterlimit:10;}
	.st4{fill:none;stroke:#CCCCCC;stroke-miterlimit:10;}
</style>
<g>
	<path class="st0" d="M265.5,179.3l-112-112c-5.4-5.4-5.4-14.4,0-19.8l0,0c5.4-5.4,14.4-5.4,19.8,0l112,112c5.4,5.4,5.4,14.4,0,19.8
		l0,0C279.9,184.8,271,184.8,265.5,179.3z"/>
</g>
<line class="st1" x1="73" y1="22" x2="177" y2="126"/>
<circle class="st1" cx="167" cy="163" r="18.5"/>
<circle class="st2" cx="155.5" cy="129.5" r="6.5"/>
<circle class="st3" cx="193" cy="33" r="8"/>
<line class="st3" x1="55" y1="22" x2="125.5" y2="92.5"/>
<circle class="st4" cx="143.3" cy="140.8" r="3.3"/>
<path class="st0" d="M76.4,86.8L14.2,24.6c-1.8-1.8-1.8-4.6,0-6.4l0,0c1.8-1.8,4.6-1.8,6.4,0l62.2,62.2c1.8,1.8,1.8,4.6,0,6.4l0,0
	C81,88.5,78.2,88.5,76.4,86.8z"/>
<circle class="st4" cx="87.3" cy="70.8" r="3.3"/>
<circle class="st2" cx="17.5" cy="49.5" r="6.5"/>
</svg>
