<?xml version="1.0" encoding="utf-8"?>
<!-- Generator: Adobe Illustrator 22.0.1, SVG Export Plug-In . SVG Version: 6.00 Build 0)  -->
<svg version="1.1" id="Layer_1" xmlns="http://www.w3.org/2000/svg" xmlns:xlink="http://www.w3.org/1999/xlink" x="0px" y="0px"
	 viewBox="0 0 40 20" style="enable-background:new 0 0 40 20;" xml:space="preserve">
<style type="text/css">
	.st0{fill:#540C93;}
</style>
<path class="st0" d="M8.8,19c0.2,0.2,0.6,0.4,0.9,0.4c0.3,0,0.7-0.1,0.9-0.4c0.1-0.1,0.7-0.7,0.8-0.8c0.2-0.2,0.4-0.6,0.4-0.9
	c0-0.3-0.1-0.7-0.4-0.9c-0.3-0.3-2-2-4.9-4.9c19.4,0,30.2,0,32.3,0c0.7,0,1.3-0.6,1.3-1.3c0-0.1,0-1,0-1.1c0-0.7-0.5-1.3-1.3-1.3
	c-2.2,0-13,0-32.4,0c3-3,4.6-4.6,4.9-4.9c0.2-0.2,0.4-0.6,0.4-0.9s-0.1-0.7-0.4-0.9c-0.1-0.1-0.7-0.7-0.8-0.8C10.3,0.1,10,0,9.7,0
	S9,0.1,8.8,0.4C7.9,1.2,1.2,7.9,0.4,8.8C0.1,9,0,9.4,0,9.7s0.1,0.7,0.4,0.9C2,12.3,7.9,18.2,8.8,19z"/>
</svg>
