<?xml version="1.0" encoding="utf-8"?>
<!-- Generator: Adobe Illustrator 22.0.1, SVG Export Plug-In . SVG Version: 6.00 Build 0)  -->
<svg version="1.1" id="Layer_1" xmlns="http://www.w3.org/2000/svg" xmlns:xlink="http://www.w3.org/1999/xlink" x="0px" y="0px"
	 viewBox="0 0 40 20" style="enable-background:new 0 0 40 20;" xml:space="preserve">
<style type="text/css">
	.st0{fill:#5B1F9B;}
</style>
<path class="st0" d="M39.6,8.8l-8.4-8.4C31,0.1,30.7,0,30.3,0c-0.3,0-0.7,0.1-0.9,0.4l-0.8,0.8c-0.2,0.2-0.4,0.6-0.4,0.9
	s0.1,0.7,0.4,0.9l4.9,4.9H1.3C0.6,7.9,0,8.4,0,9.1v1.1c0,0.7,0.6,1.3,1.3,1.3h32.4l-5,5c-0.2,0.2-0.4,0.6-0.4,0.9
	c0,0.3,0.1,0.7,0.4,0.9l0.8,0.8c0.2,0.2,0.6,0.4,0.9,0.4c0.3,0,0.7-0.1,0.9-0.4l8.4-8.4c0.2-0.2,0.4-0.6,0.4-0.9
	C40,9.4,39.9,9,39.6,8.8z"/>
</svg>
